<svg xmlns="http://www.w3.org/2000/svg" xmlns:xlink="http://www.w3.org/1999/xlink" width="211" zoomAndPan="magnify" viewBox="0 0 158.25 74.999997" height="100" preserveAspectRatio="xMidYMid meet" version="1.0"><defs><g/><clipPath id="23bccde403"><path d="M 7.464844 7.640625 L 67.179688 7.640625 L 67.179688 67 L 7.464844 67 Z M 7.464844 7.640625 " clip-rule="nonzero"/></clipPath><clipPath id="a53cabb28e"><path d="M 7.464844 38 L 27 38 L 27 57 L 7.464844 57 Z M 7.464844 38 " clip-rule="nonzero"/></clipPath></defs><g fill="#000000" fill-opacity="1"><g transform="translate(78.751766, 46.084312)"><g><path d="M 4.835938 -12.289062 C 5.558594 -13.609375 6.199219 -15.078125 6.730469 -16.652344 C 7.242188 -16.652344 7.476562 -16.84375 7.558594 -17.101562 L 4.066406 -18.101562 C 3.363281 -14.078125 1.875 -9.816406 0.363281 -7.089844 L 0.617188 -6.921875 C 1.363281 -7.558594 2.066406 -8.304688 2.726562 -9.113281 L 2.726562 1.894531 L 3.171875 1.894531 C 4.132812 1.894531 5.152344 1.382812 5.175781 1.191406 L 5.175781 -11.542969 C 5.578125 -11.605469 5.769531 -11.734375 5.835938 -11.949219 Z M 15.695312 -5.6875 L 17.78125 -5.6875 C 17.738281 -3.726562 17.632812 -2.855469 17.464844 -2.640625 C 17.355469 -2.554688 17.25 -2.535156 16.972656 -2.535156 C 16.738281 -2.535156 16.121094 -2.554688 15.695312 -2.578125 Z M 11.96875 -6.304688 C 11.988281 -6.601562 12.011719 -6.898438 12.011719 -7.21875 L 12.011719 -9.648438 L 13.332031 -9.648438 L 13.332031 -6.304688 Z M 8.21875 -6.304688 C 8.347656 -7.304688 8.496094 -8.644531 8.582031 -9.648438 L 9.734375 -9.648438 L 9.734375 -7.21875 C 9.734375 -6.898438 9.734375 -6.601562 9.710938 -6.304688 Z M 12.011719 -13.652344 L 13.332031 -13.652344 L 13.332031 -10.242188 L 12.011719 -10.242188 Z M 17.1875 -13.652344 L 17.1875 -10.242188 L 15.695312 -10.242188 L 15.695312 -13.652344 Z M 18.785156 -7.410156 L 17.589844 -6.304688 L 15.695312 -6.304688 L 15.695312 -9.648438 L 17.1875 -9.648438 L 17.1875 -8.796875 L 17.589844 -8.796875 C 18.335938 -8.796875 19.527344 -9.199219 19.550781 -9.347656 L 19.550781 -13.289062 C 19.953125 -13.375 20.230469 -13.542969 20.359375 -13.714844 L 18.058594 -15.417969 L 16.972656 -14.269531 L 15.695312 -14.269531 L 15.695312 -16.996094 C 16.269531 -17.078125 16.417969 -17.292969 16.484375 -17.589844 L 13.332031 -17.910156 L 13.332031 -14.269531 L 12.011719 -14.269531 L 12.011719 -17.058594 C 12.566406 -17.144531 12.714844 -17.355469 12.757812 -17.65625 L 9.734375 -17.953125 L 9.734375 -14.269531 L 6.410156 -14.269531 L 6.601562 -13.652344 L 9.734375 -13.652344 L 9.734375 -10.242188 L 9.113281 -10.242188 L 6.558594 -11.265625 C 6.515625 -10.074219 6.324219 -7.835938 6.132812 -6.453125 C 5.855469 -6.304688 5.578125 -6.132812 5.386719 -5.964844 L 7.476562 -4.683594 L 8.285156 -5.6875 L 9.667969 -5.6875 C 9.433594 -2.511719 8.328125 -0.214844 5.792969 1.660156 L 5.984375 1.875 C 9.882812 0.277344 11.542969 -2.195312 11.925781 -5.6875 L 13.332031 -5.6875 L 13.332031 1.851562 L 13.800781 1.851562 C 14.671875 1.851562 15.695312 1.277344 15.695312 1 L 15.695312 -2.257812 C 16.164062 -2.128906 16.460938 -1.894531 16.675781 -1.617188 C 16.910156 -1.320312 16.953125 -0.640625 16.953125 0.0195312 C 17.867188 0.0195312 18.527344 -0.214844 18.996094 -0.53125 C 19.828125 -1.105469 20.039062 -2.300781 20.082031 -5.367188 C 20.464844 -5.429688 20.722656 -5.535156 20.871094 -5.707031 Z M 18.785156 -7.410156 "/></g></g></g><g fill="#000000" fill-opacity="1"><g transform="translate(100.378348, 46.084312)"><g><path d="M 11.117188 -11.925781 C 11.414062 -11.925781 11.605469 -12.03125 11.671875 -12.265625 C 10.859375 -13.035156 9.5 -14.097656 9.5 -14.097656 L 8.285156 -12.542969 L 7.433594 -12.542969 C 7.558594 -13.289062 7.625 -14.097656 7.667969 -14.972656 L 10.777344 -14.972656 C 11.074219 -14.972656 11.308594 -15.078125 11.371094 -15.3125 C 10.542969 -16.078125 9.15625 -17.164062 9.15625 -17.164062 L 7.984375 -15.566406 L 4.835938 -15.566406 C 5.089844 -15.949219 5.324219 -16.355469 5.535156 -16.804688 C 6.003906 -16.804688 6.261719 -16.996094 6.347656 -17.25 L 3.34375 -18.125 C 3.066406 -16.144531 2.449219 -14.203125 1.703125 -12.925781 L 1.980469 -12.734375 C 2.875 -13.269531 3.707031 -14.011719 4.429688 -14.972656 L 5.261719 -14.972656 C 5.238281 -14.121094 5.21875 -13.308594 5.132812 -12.542969 L 0.851562 -12.542969 L 1.023438 -11.925781 L 5.046875 -11.925781 C 4.707031 -9.839844 3.726562 -8.136719 0.808594 -6.707031 L 1.023438 -6.410156 C 4.257812 -7.390625 5.898438 -8.6875 6.730469 -10.308594 C 7.667969 -9.582031 8.644531 -8.519531 9.09375 -7.601562 C 11.203125 -6.625 12.203125 -10.5 6.984375 -10.882812 C 7.132812 -11.203125 7.242188 -11.5625 7.324219 -11.925781 Z M 7.089844 -0.148438 L 7.089844 -2.855469 L 14.609375 -2.855469 L 14.609375 -0.148438 Z M 14.609375 -6.003906 L 14.609375 -3.472656 L 7.089844 -3.472656 L 7.089844 -6.003906 Z M 14.394531 -6.625 L 7.242188 -6.625 L 4.621094 -7.644531 L 4.621094 1.851562 L 4.984375 1.851562 C 6.027344 1.851562 7.089844 1.320312 7.089844 1.066406 L 7.089844 0.445312 L 14.609375 0.445312 L 14.609375 1.769531 L 15.035156 1.769531 C 15.84375 1.769531 17.101562 1.320312 17.121094 1.148438 L 17.121094 -5.601562 C 17.546875 -5.6875 17.824219 -5.898438 17.953125 -6.046875 L 15.546875 -7.878906 Z M 14.203125 -10.09375 L 14.203125 -15.121094 L 17.292969 -15.121094 L 17.292969 -10.09375 Z M 18.207031 -16.953125 L 17.078125 -15.71875 L 14.289062 -15.71875 L 11.863281 -16.695312 L 11.863281 -7.667969 L 12.203125 -7.667969 C 13.203125 -7.667969 14.203125 -8.179688 14.203125 -8.390625 L 14.203125 -9.476562 L 17.292969 -9.476562 L 17.292969 -8.070312 L 17.675781 -8.070312 C 18.464844 -8.070312 19.636719 -8.496094 19.65625 -8.644531 L 19.65625 -14.714844 C 20.105469 -14.800781 20.402344 -14.992188 20.53125 -15.164062 Z M 18.207031 -16.953125 "/></g></g></g><g fill="#000000" fill-opacity="1"><g transform="translate(122.00493, 46.084312)"><g><path d="M 3.640625 -3.449219 C 3.664062 -2.449219 2.875 -1.554688 2.171875 -1.214844 C 1.554688 -0.957031 1.105469 -0.425781 1.300781 0.253906 C 1.511719 0.980469 2.40625 1.148438 3.089844 0.832031 C 4.046875 0.339844 4.769531 -1.234375 3.960938 -3.449219 Z M 15.78125 -2.746094 L 15.546875 -2.746094 C 15.121094 -1.640625 14.800781 -0.957031 14.523438 -0.640625 C 14.355469 -0.445312 14.226562 -0.363281 13.886719 -0.339844 L 8.796875 -0.339844 C 7.945312 -0.339844 7.878906 -0.40625 7.878906 -0.660156 L 7.878906 -2.769531 C 8.285156 -2.832031 8.496094 -3.003906 8.539062 -3.28125 L 5.367188 -3.535156 L 5.367188 -0.363281 C 5.367188 1.171875 5.921875 1.554688 8.414062 1.554688 L 11.351562 1.554688 C 15.757812 1.554688 16.804688 1.382812 16.804688 0.339844 C 16.804688 -0.0859375 16.589844 -0.339844 15.84375 -0.574219 Z M 9.347656 -3.941406 C 10.007812 -3.34375 10.734375 -2.257812 10.902344 -1.339844 C 12.800781 -0.0625 14.4375 -3.789062 9.519531 -4.089844 Z M 15.972656 -3.195312 C 16.910156 -2.386719 17.824219 -0.980469 18.039062 0.277344 C 20.167969 1.746094 21.914062 -2.621094 16.144531 -3.34375 Z M 17.804688 -7.175781 L 17.464844 -7.175781 L 17.464844 -8.390625 C 17.867188 -8.476562 18.144531 -8.644531 18.273438 -8.816406 L 15.949219 -10.542969 L 15.757812 -10.328125 C 15.757812 -10.351562 15.78125 -10.371094 15.78125 -10.394531 L 15.78125 -11.246094 L 19.613281 -11.246094 C 19.914062 -11.246094 20.105469 -11.351562 20.167969 -11.585938 C 19.421875 -12.265625 18.207031 -13.183594 18.207031 -13.183594 L 17.121094 -11.839844 L 15.78125 -11.839844 L 15.78125 -13.394531 L 18.933594 -13.394531 C 19.210938 -13.394531 19.445312 -13.503906 19.488281 -13.734375 C 18.761719 -14.394531 17.65625 -15.25 17.65625 -15.25 L 16.632812 -14.011719 L 15.78125 -14.011719 L 15.78125 -15.417969 L 19.210938 -15.417969 C 19.507812 -15.417969 19.71875 -15.523438 19.761719 -15.757812 C 19.019531 -16.441406 17.804688 -17.355469 17.804688 -17.355469 L 16.71875 -16.035156 L 15.78125 -16.035156 L 15.78125 -17.273438 C 16.292969 -17.355469 16.460938 -17.546875 16.503906 -17.824219 L 13.417969 -18.101562 L 13.417969 -16.035156 L 10.988281 -16.035156 L 11.160156 -15.417969 L 13.417969 -15.417969 L 13.417969 -14.011719 L 11.394531 -14.011719 L 11.5625 -13.394531 L 13.417969 -13.394531 L 13.417969 -11.839844 L 10.796875 -11.839844 L 10.859375 -11.648438 C 10.074219 -12.332031 8.945312 -13.183594 8.945312 -13.183594 L 7.878906 -11.839844 L 7.113281 -11.839844 L 7.113281 -13.394531 L 9.839844 -13.394531 C 10.136719 -13.394531 10.351562 -13.503906 10.394531 -13.734375 C 9.710938 -14.355469 8.625 -15.207031 8.625 -15.207031 L 7.644531 -14.011719 L 7.113281 -14.011719 L 7.113281 -15.417969 L 9.964844 -15.417969 C 10.265625 -15.417969 10.476562 -15.523438 10.542969 -15.757812 C 9.796875 -16.417969 8.625 -17.292969 8.625 -17.292969 L 7.582031 -16.035156 L 7.113281 -16.035156 L 7.113281 -17.292969 C 7.644531 -17.355469 7.816406 -17.570312 7.835938 -17.824219 L 4.8125 -18.101562 L 4.8125 -16.035156 L 1.339844 -16.035156 L 1.511719 -15.417969 L 4.8125 -15.417969 L 4.8125 -14.011719 L 1.703125 -14.011719 L 1.875 -13.394531 L 4.8125 -13.394531 L 4.8125 -11.839844 L 1.214844 -11.839844 L 1.382812 -11.246094 L 4.8125 -11.246094 L 4.8125 -9.667969 L 5.21875 -9.667969 C 6.113281 -9.667969 7.113281 -10.050781 7.113281 -10.242188 L 7.113281 -11.246094 L 10.371094 -11.246094 C 10.628906 -11.246094 10.820312 -11.328125 10.902344 -11.5 L 10.96875 -11.246094 L 13.417969 -11.246094 L 13.417969 -9.839844 L 13.84375 -9.839844 C 14.628906 -9.839844 15.546875 -10.136719 15.738281 -10.308594 L 14.824219 -9.371094 L 3.472656 -9.371094 L 3.664062 -8.753906 L 15.035156 -8.753906 L 15.035156 -7.175781 L 1.46875 -7.175781 L 1.640625 -6.582031 L 15.035156 -6.582031 L 15.035156 -4.960938 L 3.300781 -4.960938 L 3.492188 -4.367188 L 15.035156 -4.367188 L 15.035156 -3.578125 L 15.460938 -3.578125 C 16.25 -3.578125 17.441406 -4.089844 17.464844 -4.238281 L 17.464844 -6.582031 L 20.210938 -6.582031 C 20.488281 -6.582031 20.722656 -6.6875 20.765625 -6.921875 C 20.039062 -7.582031 18.847656 -8.476562 18.847656 -8.476562 Z M 17.804688 -7.175781 "/></g></g></g><path fill="#d69aa6" d="M 31.417969 37.359375 C 31.042969 38.816406 31.820312 40.230469 32.902344 41.175781 C 33.894531 42.042969 35.175781 42.628906 35.988281 43.695312 C 36.351562 44.171875 36.574219 44.75 36.507812 45.355469 C 36.4375 45.960938 36.117188 46.546875 35.726562 47.003906 C 34.808594 48.078125 33.488281 48.671875 32.328125 49.429688 C 31.058594 50.257812 29.851562 51.371094 29.496094 52.90625 C 29.300781 53.753906 30.609375 54.117188 30.804688 53.265625 C 31.089844 52.039062 32.089844 51.191406 33.109375 50.535156 C 34.3125 49.765625 35.65625 49.125 36.617188 48.042969 C 37.570312 46.972656 38.191406 45.480469 37.703125 44.058594 C 37.238281 42.699219 36.082031 41.828125 34.949219 41.035156 C 33.910156 40.304688 32.34375 39.203125 32.726562 37.71875 C 32.941406 36.875 31.632812 36.515625 31.417969 37.359375 " fill-opacity="1" fill-rule="nonzero"/><path fill="#d69aa6" d="M 39.628906 54.53125 C 37.4375 54.683594 35.429688 53.660156 33.363281 53.109375 C 31.472656 52.605469 29.359375 52.488281 27.671875 53.628906 C 26.839844 54.191406 26.191406 54.988281 25.941406 55.972656 C 25.726562 56.816406 27.035156 57.179688 27.25 56.332031 C 27.472656 55.453125 28.148438 54.832031 28.957031 54.457031 C 29.917969 54.011719 31.027344 54.011719 32.058594 54.199219 C 34.609375 54.667969 36.96875 56.070312 39.628906 55.886719 C 39.996094 55.863281 40.308594 55.59375 40.308594 55.210938 C 40.308594 54.863281 40 54.507812 39.628906 54.53125 " fill-opacity="1" fill-rule="nonzero"/><path fill="#d69aa6" d="M 44.691406 47.425781 C 44.082031 47.964844 43.460938 48.535156 43.058594 49.253906 C 42.628906 50.023438 42.523438 50.890625 42.707031 51.746094 C 43.082031 53.503906 44.542969 54.660156 45.902344 55.6875 C 46.195312 55.910156 46.660156 55.734375 46.832031 55.445312 C 47.035156 55.097656 46.878906 54.742188 46.585938 54.519531 C 45.539062 53.722656 44.371094 52.832031 44.042969 51.492188 C 43.707031 50.136719 44.726562 49.203125 45.652344 48.386719 C 45.925781 48.140625 45.898438 47.675781 45.652344 47.425781 C 45.378906 47.15625 44.964844 47.183594 44.691406 47.425781 " fill-opacity="1" fill-rule="nonzero"/><path fill="#d69aa6" d="M 44.335938 46.359375 C 42.140625 46.910156 40.226562 48.308594 39.011719 50.210938 C 38.542969 50.949219 39.71875 51.628906 40.1875 50.894531 C 41.214844 49.285156 42.84375 48.128906 44.695312 47.664062 C 45.542969 47.453125 45.183594 46.144531 44.335938 46.359375 " fill-opacity="1" fill-rule="nonzero"/><path fill="#d69aa6" d="M 44.570312 44.667969 C 43.941406 45.101562 43.601562 45.835938 43.78125 46.597656 C 43.964844 47.378906 44.703125 47.878906 45.476562 47.921875 C 45.257812 47.636719 45.039062 47.347656 44.820312 47.0625 C 44.574219 48.097656 45.027344 49.253906 45.992188 49.753906 C 46.9375 50.25 48.1875 50.023438 48.886719 49.210938 C 49.125 48.933594 49.15625 48.527344 48.886719 48.253906 C 48.640625 48.011719 48.164062 47.976562 47.925781 48.253906 C 47.605469 48.621094 47.109375 48.78125 46.679688 48.585938 C 46.234375 48.386719 46.03125 47.84375 46.132812 47.421875 C 46.238281 46.976562 45.925781 46.59375 45.476562 46.566406 C 45.078125 46.542969 44.957031 46.042969 45.257812 45.839844 C 45.558594 45.632812 45.695312 45.242188 45.5 44.910156 C 45.324219 44.613281 44.875 44.460938 44.570312 44.667969 " fill-opacity="1" fill-rule="nonzero"/><path fill="#d69aa6" d="M 48.078125 49.054688 C 49.519531 50.261719 51.972656 49.648438 52.324219 47.6875 C 52.480469 46.808594 52.222656 45.84375 51.546875 45.238281 C 50.785156 44.5625 49.605469 44.433594 48.832031 45.152344 C 49.1875 45.425781 49.542969 45.699219 49.898438 45.972656 C 50.925781 44.40625 49.816406 42.300781 48.035156 42.015625 C 46.171875 41.71875 44.542969 43.113281 44.253906 44.921875 C 44.199219 45.28125 44.347656 45.648438 44.730469 45.753906 C 45.050781 45.839844 45.507812 45.644531 45.566406 45.28125 C 45.734375 44.222656 46.496094 43.230469 47.664062 43.328125 C 48.652344 43.40625 49.265625 44.464844 48.726562 45.289062 C 48.289062 45.949219 49.242188 46.617188 49.792969 46.109375 C 50.039062 45.878906 50.507812 46.078125 50.734375 46.34375 C 50.992188 46.652344 51.078125 47.117188 50.980469 47.488281 C 50.765625 48.304688 49.671875 48.628906 49.039062 48.097656 C 48.757812 47.863281 48.351562 47.824219 48.078125 48.097656 C 47.835938 48.339844 47.796875 48.816406 48.078125 49.054688 " fill-opacity="1" fill-rule="nonzero"/><path fill="#d69aa6" d="M 42.261719 48.710938 C 43.179688 47.101562 43.425781 45.15625 42.957031 43.363281 C 42.726562 42.476562 42.3125 41.652344 41.757812 40.921875 C 41.152344 40.132812 40.441406 39.441406 39.789062 38.6875 C 39.175781 37.980469 38.566406 37.121094 38.449219 36.164062 C 38.40625 35.800781 38.167969 35.484375 37.769531 35.484375 C 37.4375 35.484375 37.046875 35.796875 37.089844 36.164062 C 37.328125 38.109375 38.664062 39.460938 39.929688 40.847656 C 40.519531 41.492188 41.078125 42.179688 41.410156 42.996094 C 41.722656 43.761719 41.855469 44.585938 41.828125 45.410156 C 41.800781 46.328125 41.546875 47.226562 41.089844 48.027344 C 40.65625 48.785156 41.828125 49.46875 42.261719 48.710938 " fill-opacity="1" fill-rule="nonzero"/><path fill="#d69aa6" d="M 33.886719 36.425781 C 33.09375 37.890625 33.691406 39.535156 34.597656 40.785156 C 35.382812 41.871094 36.773438 43.167969 36.476562 44.648438 C 36.40625 45.007812 36.578125 45.378906 36.953125 45.480469 C 37.285156 45.574219 37.714844 45.367188 37.789062 45.007812 C 38.121094 43.328125 37.183594 41.933594 36.199219 40.667969 C 35.472656 39.738281 34.386719 38.347656 35.058594 37.109375 C 35.476562 36.34375 34.304688 35.660156 33.886719 36.425781 " fill-opacity="1" fill-rule="nonzero"/><path fill="#d69aa6" d="M 25.53125 41.390625 C 24.628906 41.59375 23.894531 42.324219 23.644531 43.203125 C 23.398438 44.070312 23.6875 45.027344 24.351562 45.636719 C 25.011719 46.246094 25.957031 46.511719 26.824219 46.207031 C 27.683594 45.90625 28.398438 45.148438 28.535156 44.234375 C 28.253906 44.390625 27.976562 44.546875 27.699219 44.707031 C 29.019531 45.230469 30.609375 44.710938 31.425781 43.570312 C 32.277344 42.378906 32.078125 40.683594 31.121094 39.625 C 31.121094 39.945312 31.121094 40.261719 31.121094 40.582031 C 31.875 39.679688 32.296875 38.585938 32.289062 37.402344 C 32.0625 37.628906 31.835938 37.855469 31.609375 38.082031 C 32.925781 38.230469 34.128906 37.378906 34.605469 36.191406 C 34.191406 36.242188 33.777344 36.296875 33.363281 36.351562 C 33.757812 37.171875 34.769531 37.632812 35.648438 37.386719 C 36.527344 37.144531 37.164062 36.246094 37.085938 35.335938 C 36.699219 35.496094 36.3125 35.65625 35.925781 35.816406 C 36.730469 36.632812 38.132812 36.796875 39.066406 36.09375 C 38.757812 36.011719 38.445312 35.929688 38.136719 35.851562 C 39.125 37.738281 41.503906 38.714844 43.539062 38.085938 C 43.261719 37.808594 42.980469 37.527344 42.703125 37.25 C 42.355469 38.925781 43.371094 40.761719 45.070312 41.207031 C 46.738281 41.648438 48.496094 40.632812 49.078125 39.050781 C 48.859375 39.214844 48.640625 39.382812 48.421875 39.546875 C 50.03125 39.722656 51.691406 38.886719 52.535156 37.515625 C 53.398438 36.109375 53.324219 34.199219 52.378906 32.855469 C 52.402344 33.027344 52.421875 33.203125 52.445312 33.375 C 52.992188 32.035156 53.550781 30.484375 52.953125 29.066406 C 52.449219 27.863281 51.246094 26.980469 49.90625 27.269531 C 50.191406 27.488281 50.480469 27.703125 50.765625 27.921875 C 50.714844 26.546875 49.992188 25.25 48.8125 24.523438 C 47.554688 23.742188 45.90625 23.765625 44.625 24.480469 C 44.902344 24.515625 45.175781 24.550781 45.449219 24.585938 C 43.714844 22.933594 40.894531 22.628906 38.863281 23.929688 C 39.207031 24.125 39.546875 24.320312 39.886719 24.515625 C 39.917969 23.582031 39.425781 22.71875 38.703125 22.160156 C 37.890625 21.53125 36.882812 21.308594 35.882812 21.214844 C 34.152344 21.046875 32.042969 21.453125 31.238281 23.1875 C 30.832031 24.058594 30.765625 25.109375 31.34375 25.925781 C 31.601562 25.59375 31.855469 25.261719 32.113281 24.929688 C 30.996094 24.707031 29.78125 25.046875 29.03125 25.933594 C 28.300781 26.796875 28.070312 28.058594 28.507812 29.113281 C 28.722656 28.828125 28.941406 28.542969 29.160156 28.257812 C 27.480469 28.066406 25.667969 28.46875 24.386719 29.617188 C 23.234375 30.648438 22.765625 32.304688 23.195312 33.789062 C 23.4375 34.625 23.964844 35.351562 24.726562 35.78125 C 24.777344 35.371094 24.832031 34.957031 24.886719 34.546875 C 23.644531 34.714844 22.6875 35.832031 22.589844 37.050781 C 22.484375 38.320312 23.449219 39.53125 24.660156 39.839844 C 24.523438 39.507812 24.386719 39.175781 24.253906 38.84375 C 23.777344 39.46875 23.78125 40.417969 24.003906 41.136719 C 24.261719 41.953125 24.820312 42.621094 25.710938 42.714844 C 26.078125 42.75 26.390625 42.375 26.390625 42.035156 C 26.390625 41.636719 26.078125 41.394531 25.710938 41.359375 C 25.863281 41.375 25.6875 41.351562 25.660156 41.335938 C 25.746094 41.386719 25.675781 41.347656 25.640625 41.3125 C 25.585938 41.261719 25.707031 41.371094 25.613281 41.285156 C 25.605469 41.28125 25.472656 41.136719 25.550781 41.234375 C 25.472656 41.136719 25.414062 41.023438 25.363281 40.914062 C 25.335938 40.859375 25.371094 40.945312 25.339844 40.84375 C 25.316406 40.777344 25.292969 40.707031 25.277344 40.636719 C 25.222656 40.421875 25.199219 40.25 25.230469 39.960938 C 25.222656 40.058594 25.238281 39.945312 25.246094 39.90625 C 25.261719 39.855469 25.273438 39.800781 25.289062 39.75 C 25.347656 39.578125 25.234375 39.828125 25.324219 39.679688 C 25.355469 39.625 25.386719 39.578125 25.425781 39.527344 C 25.691406 39.175781 25.40625 38.632812 25.019531 38.53125 C 24.375 38.367188 23.859375 37.734375 23.945312 37.050781 C 24.027344 36.402344 24.605469 35.9375 25.25 35.851562 C 25.847656 35.769531 25.875 34.878906 25.410156 34.613281 C 24.839844 34.289062 24.539062 33.757812 24.425781 33.085938 C 24.324219 32.484375 24.453125 31.769531 24.796875 31.210938 C 25.675781 29.777344 27.617188 29.4375 29.160156 29.613281 C 29.570312 29.660156 29.972656 29.136719 29.816406 28.753906 C 29.5625 28.144531 29.578125 27.433594 29.992188 26.890625 C 30.390625 26.367188 31.113281 26.109375 31.75 26.238281 C 32.277344 26.34375 32.886719 25.765625 32.519531 25.242188 C 32.140625 24.710938 32.230469 24.085938 32.601562 23.527344 C 33.023438 22.898438 33.832031 22.621094 34.558594 22.554688 C 35.871094 22.433594 38.59375 22.664062 38.527344 24.515625 C 38.511719 25.015625 39.121094 25.375 39.550781 25.097656 C 41.066406 24.128906 43.175781 24.292969 44.488281 25.546875 C 44.710938 25.757812 45.046875 25.800781 45.3125 25.652344 C 46.179688 25.164062 47.277344 25.164062 48.128906 25.691406 C 48.890625 26.164062 49.375 27.03125 49.40625 27.921875 C 49.421875 28.378906 49.824219 28.667969 50.265625 28.574219 C 50.898438 28.4375 51.511719 29.046875 51.730469 29.636719 C 52.082031 30.585938 51.664062 31.679688 51.316406 32.570312 C 51.199219 32.863281 51.039062 33.140625 51.171875 33.457031 C 51.261719 33.675781 51.425781 33.859375 51.523438 34.078125 C 51.6875 34.441406 51.769531 34.839844 51.777344 35.234375 C 51.796875 36.050781 51.5 36.824219 50.902344 37.390625 C 50.238281 38.023438 49.328125 38.292969 48.421875 38.191406 C 48.113281 38.160156 47.863281 38.429688 47.769531 38.691406 C 47.4375 39.597656 46.316406 40.136719 45.429688 39.902344 C 44.460938 39.648438 43.816406 38.550781 44.011719 37.613281 C 44.113281 37.128906 43.703125 36.617188 43.179688 36.777344 C 41.714844 37.230469 40.035156 36.554688 39.308594 35.167969 C 39.15625 34.867188 38.664062 34.710938 38.382812 34.921875 C 37.917969 35.273438 37.308594 35.289062 36.886719 34.859375 C 36.5 34.464844 35.671875 34.738281 35.726562 35.335938 C 35.792969 36.097656 34.882812 36.390625 34.535156 35.667969 C 34.421875 35.429688 34.105469 35.308594 33.859375 35.34375 C 33.570312 35.386719 33.398438 35.570312 33.292969 35.828125 C 33.027344 36.492188 32.28125 36.804688 31.609375 36.726562 C 31.246094 36.6875 30.929688 37.070312 30.929688 37.402344 C 30.933594 38.207031 30.679688 39 30.160156 39.625 C 29.914062 39.917969 29.894531 40.289062 30.160156 40.582031 C 30.707031 41.1875 30.769531 42.195312 30.277344 42.851562 C 29.757812 43.546875 28.816406 43.699219 28.058594 43.402344 C 27.746094 43.277344 27.273438 43.539062 27.222656 43.875 C 27.085938 44.792969 26.054688 45.347656 25.3125 44.679688 C 24.585938 44.023438 24.957031 42.90625 25.890625 42.699219 C 26.742188 42.507812 26.382812 41.199219 25.53125 41.390625 " fill-opacity="1" fill-rule="nonzero"/><path fill="#d69aa6" d="M 47.238281 54.320312 C 46.226562 54.671875 45.171875 54.5 44.144531 54.335938 C 43.007812 54.152344 41.835938 53.972656 40.703125 54.277344 C 38.597656 54.851562 37.351562 56.828125 36.34375 58.605469 C 35.914062 59.363281 37.085938 60.046875 37.519531 59.289062 C 38.386719 57.75 39.460938 55.859375 41.363281 55.515625 C 42.335938 55.34375 43.34375 55.578125 44.304688 55.722656 C 45.402344 55.886719 46.527344 56 47.597656 55.625 C 47.945312 55.503906 48.175781 55.164062 48.070312 54.792969 C 47.980469 54.457031 47.585938 54.199219 47.238281 54.320312 " fill-opacity="1" fill-rule="nonzero"/><path fill="#d69aa6" d="M 26.546875 55.585938 C 25.902344 55.535156 25.222656 55.5 24.609375 55.734375 C 23.992188 55.96875 23.472656 56.4375 23.261719 57.070312 C 22.863281 58.273438 23.875 59.167969 24.941406 59.433594 C 25.53125 59.578125 26.148438 59.589844 26.75 59.621094 C 27.476562 59.65625 28.199219 59.6875 28.925781 59.710938 C 30.375 59.757812 31.824219 59.78125 33.277344 59.777344 C 36.199219 59.773438 39.121094 59.667969 42.035156 59.460938 C 43.503906 59.355469 44.96875 59.222656 46.433594 59.066406 C 47.632812 58.9375 48.910156 58.898438 50.03125 58.402344 C 51.191406 57.882812 51.882812 56.613281 51.207031 55.417969 C 50.863281 54.8125 50.234375 54.367188 49.5625 54.195312 C 48.875 54.015625 48.242188 54.21875 47.558594 54.308594 C 47.195312 54.359375 46.996094 54.824219 47.085938 55.144531 C 47.191406 55.535156 47.554688 55.664062 47.921875 55.617188 C 48.339844 55.558594 48.738281 55.402344 49.152344 55.488281 C 49.519531 55.5625 49.890625 55.796875 50.054688 56.144531 C 50.183594 56.417969 50.097656 56.675781 49.980469 56.808594 C 49.769531 57.058594 49.4375 57.207031 49.109375 57.308594 C 48.128906 57.617188 47.09375 57.644531 46.050781 57.753906 C 44.796875 57.882812 43.542969 57.996094 42.289062 58.085938 C 37.289062 58.453125 32.269531 58.523438 27.261719 58.289062 C 26.71875 58.265625 26.078125 58.265625 25.589844 58.1875 C 25.378906 58.152344 25.128906 58.09375 24.953125 58.019531 C 24.820312 57.964844 24.667969 57.867188 24.613281 57.796875 C 24.546875 57.714844 24.507812 57.636719 24.558594 57.472656 C 24.605469 57.316406 24.746094 57.1875 24.878906 57.097656 C 25.34375 56.792969 26.027344 56.898438 26.546875 56.941406 C 26.910156 56.972656 27.226562 56.609375 27.226562 56.265625 C 27.226562 55.875 26.914062 55.617188 26.546875 55.585938 " fill-opacity="1" fill-rule="nonzero"/><path fill="#d69aa6" d="M 24.933594 55.519531 C 22.332031 55.328125 19.808594 56.636719 18.410156 58.824219 C 18.257812 59.0625 18.296875 59.453125 18.515625 59.644531 C 23.265625 63.78125 29.25 66.332031 35.546875 66.855469 C 41.121094 67.316406 46.722656 65.9375 51.589844 63.230469 C 53.898438 61.945312 56.078125 60.386719 58.03125 58.613281 C 58.316406 58.351562 58.261719 57.921875 58.03125 57.652344 C 55.960938 55.265625 52.839844 53.96875 49.683594 54.117188 C 48.8125 54.160156 48.808594 55.511719 49.683594 55.472656 C 52.511719 55.339844 55.214844 56.472656 57.070312 58.613281 C 57.070312 58.292969 57.070312 57.972656 57.070312 57.652344 C 53.535156 60.871094 49.21875 63.382812 44.601562 64.652344 C 38.785156 66.25 32.546875 65.742188 27 63.390625 C 24.246094 62.222656 21.675781 60.601562 19.476562 58.6875 C 19.511719 58.960938 19.546875 59.234375 19.582031 59.507812 C 20.113281 58.679688 20.921875 57.925781 21.890625 57.441406 C 22.832031 56.96875 23.890625 56.796875 24.933594 56.875 C 25.300781 56.902344 25.613281 56.542969 25.613281 56.199219 C 25.613281 55.808594 25.300781 55.546875 24.933594 55.519531 " fill-opacity="1" fill-rule="nonzero"/><g clip-path="url(#23bccde403)"><path fill="#d69aa6" d="M 37.289062 7.597656 C 34.183594 7.605469 31.070312 8.078125 28.113281 9.039062 C 25.261719 9.964844 22.542969 11.320312 20.101562 13.058594 C 17.664062 14.792969 15.507812 16.871094 13.683594 19.238281 C 11.855469 21.605469 10.40625 24.25 9.371094 27.054688 C 8.304688 29.945312 7.714844 33.011719 7.59375 36.089844 C 7.476562 39.199219 7.847656 42.339844 8.703125 45.335938 C 9.519531 48.203125 10.78125 50.957031 12.425781 53.449219 C 14.058594 55.921875 16.054688 58.160156 18.347656 60.042969 C 20.683594 61.964844 23.285156 63.515625 26.085938 64.664062 C 28.929688 65.828125 31.957031 66.523438 35.023438 66.761719 C 38.136719 67 41.296875 66.742188 44.328125 66.011719 C 47.261719 65.300781 50.089844 64.136719 52.667969 62.578125 C 55.207031 61.042969 57.523438 59.125 59.496094 56.910156 C 61.476562 54.683594 63.128906 52.171875 64.355469 49.460938 C 65.625 46.65625 66.445312 43.691406 66.808594 40.636719 C 67.175781 37.519531 67.03125 34.347656 66.40625 31.273438 C 65.804688 28.316406 64.734375 25.449219 63.261719 22.8125 C 61.8125 20.226562 59.96875 17.847656 57.816406 15.804688 C 55.664062 13.753906 53.199219 12.019531 50.535156 10.699219 C 47.820312 9.355469 44.90625 8.417969 41.910156 7.960938 C 40.378906 7.726562 38.835938 7.601562 37.289062 7.597656 C 36.417969 7.597656 36.414062 8.953125 37.289062 8.953125 C 40.277344 8.957031 43.21875 9.414062 46.066406 10.332031 C 48.796875 11.214844 51.378906 12.519531 53.722656 14.179688 C 56 15.789062 58.078125 17.78125 59.777344 19.988281 C 61.519531 22.25 62.933594 24.789062 63.914062 27.453125 C 64.929688 30.230469 65.511719 33.144531 65.625 36.089844 C 65.742188 39.082031 65.398438 42.050781 64.582031 44.933594 C 63.792969 47.714844 62.578125 50.347656 60.984375 52.765625 C 59.421875 55.128906 57.5 57.25 55.304688 59.058594 C 53.144531 60.84375 50.652344 62.335938 48.054688 63.390625 C 45.332031 64.496094 42.433594 65.1875 39.511719 65.410156 C 36.507812 65.636719 33.492188 65.402344 30.570312 64.695312 C 27.753906 64.007812 25.078125 62.90625 22.597656 61.40625 C 20.164062 59.933594 17.972656 58.109375 16.074219 55.984375 C 14.179688 53.863281 12.613281 51.445312 11.433594 48.855469 C 10.242188 46.25 9.449219 43.390625 9.121094 40.546875 C 8.777344 37.5625 8.894531 34.523438 9.492188 31.589844 C 10.074219 28.75 11.082031 26.023438 12.492188 23.496094 C 13.882812 21.007812 15.628906 18.757812 17.691406 16.789062 C 19.753906 14.820312 22.097656 13.179688 24.65625 11.90625 C 27.265625 10.601562 30.09375 9.71875 32.988281 9.273438 C 34.398438 9.054688 35.851562 8.957031 37.289062 8.953125 C 38.164062 8.953125 38.164062 7.597656 37.289062 7.597656 " fill-opacity="1" fill-rule="nonzero"/></g><path fill="#d69aa6" d="M 62.554688 23.6875 C 59.277344 26.117188 56.839844 29.5625 55.652344 33.464844 C 54.988281 35.65625 54.804688 37.933594 54.835938 40.214844 C 54.871094 42.621094 55.097656 45.027344 54.933594 47.433594 C 54.777344 49.75 54.230469 52.070312 52.867188 53.988281 C 52.652344 54.285156 52.8125 54.742188 53.109375 54.914062 C 53.449219 55.113281 53.828125 54.96875 54.039062 54.671875 C 56.683594 50.960938 56.40625 46.183594 56.242188 41.867188 C 56.15625 39.566406 56.128906 37.246094 56.652344 34.988281 C 57.09375 33.085938 57.851562 31.269531 58.882812 29.613281 C 60.023438 27.78125 61.503906 26.144531 63.242188 24.855469 C 63.535156 24.640625 63.683594 24.269531 63.484375 23.929688 C 63.316406 23.640625 62.851562 23.46875 62.554688 23.6875 " fill-opacity="1" fill-rule="nonzero"/><path fill="#d69aa6" d="M 64.46875 29.011719 C 61.492188 30.957031 59.917969 34.386719 59.386719 37.800781 C 58.730469 42.015625 59.386719 46.277344 58.996094 50.503906 C 58.804688 52.625 58.308594 54.746094 57.253906 56.613281 C 56.824219 57.375 57.996094 58.058594 58.425781 57.296875 C 60.386719 53.835938 60.535156 49.773438 60.472656 45.898438 C 60.410156 42.054688 60.15625 37.984375 61.761719 34.382812 C 62.507812 32.71875 63.605469 31.195312 65.152344 30.183594 C 65.882812 29.707031 65.203125 28.535156 64.46875 29.011719 " fill-opacity="1" fill-rule="nonzero"/><path fill="#d69aa6" d="M 59.492188 19.175781 C 55.859375 21.46875 53.105469 25.007812 51.777344 29.082031 C 51.507812 29.914062 52.820312 30.269531 53.089844 29.445312 C 54.304688 25.707031 56.847656 22.445312 60.175781 20.34375 C 60.914062 19.878906 60.234375 18.707031 59.492188 19.175781 " fill-opacity="1" fill-rule="nonzero"/><path fill="#d69aa6" d="M 50.425781 38.480469 C 50.136719 40.464844 50.03125 42.460938 50.144531 44.460938 C 50.191406 45.328125 51.550781 45.335938 51.5 44.460938 C 51.398438 42.585938 51.464844 40.699219 51.734375 38.839844 C 51.789062 38.476562 51.644531 38.113281 51.261719 38.007812 C 50.941406 37.917969 50.480469 38.113281 50.425781 38.480469 " fill-opacity="1" fill-rule="nonzero"/><path fill="#d69aa6" d="M 47.691406 54.5 C 48.808594 52.847656 49.464844 50.953125 49.671875 48.972656 C 49.710938 48.609375 49.332031 48.296875 48.992188 48.296875 C 48.59375 48.296875 48.351562 48.609375 48.3125 48.972656 C 48.132812 50.710938 47.496094 52.371094 46.519531 53.816406 C 46.3125 54.121094 46.460938 54.566406 46.761719 54.742188 C 47.097656 54.9375 47.484375 54.804688 47.691406 54.5 " fill-opacity="1" fill-rule="nonzero"/><path fill="#d69aa6" d="M 11.234375 23.917969 C 11.441406 26.136719 12.546875 28.09375 14.0625 29.695312 C 15.667969 31.394531 17.6875 32.621094 19.675781 33.816406 C 20.855469 34.527344 22.035156 35.242188 23.144531 36.058594 C 23.441406 36.273438 23.902344 36.105469 24.074219 35.8125 C 24.277344 35.46875 24.128906 35.105469 23.832031 34.886719 C 20.390625 32.359375 15.945312 30.753906 13.644531 26.945312 C 13.089844 26.023438 12.691406 24.996094 12.59375 23.917969 C 12.558594 23.554688 12.304688 23.242188 11.914062 23.242188 C 11.574219 23.242188 11.199219 23.554688 11.234375 23.917969 " fill-opacity="1" fill-rule="nonzero"/><path fill="#d69aa6" d="M 35.613281 48.136719 C 35.019531 46.003906 33.777344 44.0625 32.0625 42.648438 C 31.78125 42.414062 31.378906 42.371094 31.101562 42.648438 C 30.863281 42.886719 30.820312 43.371094 31.101562 43.605469 C 32.648438 44.878906 33.769531 46.570312 34.304688 48.5 C 34.539062 49.335938 35.847656 48.980469 35.613281 48.136719 " fill-opacity="1" fill-rule="nonzero"/><path fill="#d69aa6" d="M 8.402344 30.726562 C 11.167969 35.078125 15.253906 38.578125 19.992188 40.636719 C 21.347656 41.226562 22.738281 41.707031 24.175781 42.058594 C 25.023438 42.265625 25.386719 40.960938 24.535156 40.753906 C 19.746094 39.578125 15.378906 36.953125 12.070312 33.3125 C 11.144531 32.296875 10.3125 31.203125 9.578125 30.042969 C 9.109375 29.308594 7.933594 29.988281 8.402344 30.726562 " fill-opacity="1" fill-rule="nonzero"/><path fill="#d69aa6" d="M 31.902344 51.257812 C 31.160156 48.816406 29.9375 46.566406 28.3125 44.597656 C 28.082031 44.3125 27.59375 44.355469 27.351562 44.597656 C 27.074219 44.875 27.117188 45.269531 27.351562 45.554688 C 28.824219 47.335938 29.921875 49.410156 30.59375 51.617188 C 30.847656 52.449219 32.160156 52.09375 31.902344 51.257812 " fill-opacity="1" fill-rule="nonzero"/><g clip-path="url(#a53cabb28e)"><path fill="#d69aa6" d="M 26.941406 55.351562 C 26.917969 51.933594 24.53125 49.117188 21.808594 47.304688 C 18.878906 45.355469 15.449219 44.308594 12.550781 42.308594 C 11.113281 41.3125 9.847656 40.070312 9.042969 38.507812 C 8.640625 37.734375 7.46875 38.417969 7.867188 39.191406 C 9.375 42.117188 12.285156 43.941406 15.152344 45.355469 C 18.175781 46.847656 21.488281 48.121094 23.722656 50.761719 C 24.8125 52.046875 25.570312 53.644531 25.585938 55.351562 C 25.589844 56.222656 26.949219 56.222656 26.941406 55.351562 " fill-opacity="1" fill-rule="nonzero"/></g><path fill="#d69aa6" d="M 22.097656 56.082031 C 20.269531 53.101562 17.542969 50.675781 14.355469 49.21875 C 13.4375 48.796875 12.488281 48.449219 11.511719 48.191406 C 10.667969 47.964844 10.304688 49.269531 11.152344 49.496094 C 15.191406 50.574219 18.738281 53.207031 20.925781 56.765625 C 21.378906 57.507812 22.554688 56.828125 22.097656 56.082031 " fill-opacity="1" fill-rule="nonzero"/><path fill="#d69aa6" d="M 54.386719 14.445312 C 51.023438 16.640625 48.460938 19.894531 47.113281 23.664062 C 46.988281 24.011719 47.25 24.40625 47.585938 24.5 C 47.960938 24.601562 48.296875 24.371094 48.421875 24.027344 C 49.648438 20.601562 52.023438 17.605469 55.074219 15.613281 C 55.800781 15.140625 55.121094 13.964844 54.386719 14.445312 " fill-opacity="1" fill-rule="nonzero"/><path fill="#d69aa6" d="M 15.085938 18.597656 C 16.363281 22.765625 19.324219 26.359375 23.144531 28.472656 C 24.230469 29.074219 25.386719 29.554688 26.578125 29.898438 C 27.417969 30.144531 27.777344 28.835938 26.9375 28.59375 C 23.070312 27.476562 19.738281 24.792969 17.738281 21.320312 C 17.171875 20.34375 16.726562 19.316406 16.394531 18.238281 C 16.140625 17.40625 14.828125 17.761719 15.085938 18.597656 " fill-opacity="1" fill-rule="nonzero"/><path fill="#d69aa6" d="M 19.875 14.339844 C 21.039062 18.691406 24.097656 22.472656 28.058594 24.613281 C 29.183594 25.222656 30.386719 25.703125 31.625 26.027344 C 32.46875 26.25 32.832031 24.945312 31.984375 24.722656 C 27.941406 23.660156 24.472656 20.859375 22.476562 17.210938 C 21.914062 16.1875 21.488281 15.105469 21.1875 13.980469 C 20.960938 13.140625 19.652344 13.496094 19.875 14.339844 " fill-opacity="1" fill-rule="nonzero"/><path fill="#d69aa6" d="M 47.152344 10.625 C 44.625 13.199219 43.066406 16.597656 42.675781 20.171875 C 42.566406 21.175781 42.5625 22.1875 42.660156 23.195312 C 42.691406 23.558594 42.945312 23.871094 43.335938 23.871094 C 43.679688 23.871094 44.050781 23.558594 44.015625 23.195312 C 43.613281 18.949219 45.117188 14.632812 48.113281 11.582031 C 48.722656 10.960938 47.765625 10 47.152344 10.625 " fill-opacity="1" fill-rule="nonzero"/><path fill="#d69aa6" d="M 39.347656 8.640625 C 37.105469 11.546875 36.113281 15.390625 36.582031 19.023438 C 36.71875 20.070312 36.957031 21.09375 37.328125 22.085938 C 37.453125 22.429688 37.785156 22.660156 38.160156 22.558594 C 38.492188 22.46875 38.765625 22.070312 38.636719 21.726562 C 37.453125 18.5625 37.570312 14.945312 38.984375 11.867188 C 39.398438 10.964844 39.914062 10.113281 40.523438 9.324219 C 40.746094 9.035156 40.566406 8.566406 40.277344 8.398438 C 39.929688 8.191406 39.574219 8.347656 39.347656 8.640625 " fill-opacity="1" fill-rule="nonzero"/><path fill="#d69aa6" d="M 28.25 10.15625 C 28.042969 13.75 29.171875 17.417969 31.34375 20.289062 C 31.972656 21.121094 32.671875 21.890625 33.453125 22.582031 C 33.730469 22.820312 34.144531 22.851562 34.414062 22.582031 C 34.664062 22.335938 34.691406 21.867188 34.414062 21.621094 C 31.875 19.390625 30.222656 16.292969 29.722656 12.960938 C 29.582031 12.035156 29.554688 11.089844 29.609375 10.15625 C 29.660156 9.285156 28.300781 9.289062 28.25 10.15625 " fill-opacity="1" fill-rule="nonzero"/><path fill="#d69aa6" d="M 46.671875 43.089844 C 46.910156 42.292969 46.78125 41.402344 46.292969 40.722656 C 46.078125 40.425781 45.699219 40.285156 45.363281 40.480469 C 45.070312 40.652344 44.902344 41.109375 45.121094 41.40625 C 45.410156 41.8125 45.507812 42.246094 45.363281 42.730469 C 45.113281 43.566406 46.421875 43.921875 46.671875 43.089844 " fill-opacity="1" fill-rule="nonzero"/></svg>