<svg xmlns="http://www.w3.org/2000/svg" xmlns:xlink="http://www.w3.org/1999/xlink" width="211" zoomAndPan="magnify" viewBox="0 0 158.25 74.999997" height="100" preserveAspectRatio="xMidYMid meet" version="1.0"><defs><clipPath id="7c1697d97d"><path d="M 61 58 L 112 58 L 112 74.769531 L 61 74.769531 Z M 61 58 " clip-rule="nonzero"/></clipPath><clipPath id="e5a89acc7d"><path d="M 48.054688 0.175781 L 122.703125 0.175781 L 122.703125 74.769531 L 48.054688 74.769531 Z M 48.054688 0.175781 " clip-rule="nonzero"/></clipPath><clipPath id="d5a8ddb2fc"><path d="M 48.054688 38 L 73 38 L 73 61 L 48.054688 61 Z M 48.054688 38 " clip-rule="nonzero"/></clipPath></defs><path fill="#d69aa6" d="M 77.996094 37.324219 C 77.527344 39.148438 78.5 40.914062 79.851562 42.09375 C 81.09375 43.179688 82.695312 43.914062 83.710938 45.242188 C 84.164062 45.84375 84.441406 46.558594 84.355469 47.320312 C 84.273438 48.074219 83.871094 48.8125 83.382812 49.382812 C 82.238281 50.722656 80.585938 51.460938 79.136719 52.410156 C 77.546875 53.449219 76.035156 54.839844 75.59375 56.757812 C 75.347656 57.816406 76.984375 58.269531 77.230469 57.207031 C 77.585938 55.671875 78.839844 54.613281 80.109375 53.796875 C 81.613281 52.832031 83.292969 52.03125 84.496094 50.679688 C 85.683594 49.34375 86.464844 47.476562 85.855469 45.699219 C 85.269531 44 83.828125 42.910156 82.410156 41.917969 C 81.113281 41.007812 79.15625 39.632812 79.632812 37.773438 C 79.902344 36.71875 78.265625 36.269531 77.996094 37.324219 " fill-opacity="1" fill-rule="nonzero"/><path fill="#d69aa6" d="M 88.261719 58.789062 C 85.523438 58.976562 83.011719 57.699219 80.425781 57.011719 C 78.066406 56.382812 75.421875 56.234375 73.3125 57.660156 C 72.273438 58.367188 71.460938 59.363281 71.148438 60.589844 C 70.878906 61.648438 72.515625 62.097656 72.785156 61.039062 C 73.066406 59.941406 73.910156 59.164062 74.917969 58.699219 C 76.125 58.140625 77.507812 58.140625 78.796875 58.375 C 81.988281 58.960938 84.933594 60.710938 88.261719 60.484375 C 88.722656 60.453125 89.113281 60.117188 89.113281 59.636719 C 89.113281 59.203125 88.722656 58.757812 88.261719 58.789062 " fill-opacity="1" fill-rule="nonzero"/><path fill="#d69aa6" d="M 94.589844 49.910156 C 93.828125 50.582031 93.050781 51.296875 92.550781 52.191406 C 92.015625 53.15625 91.878906 54.238281 92.109375 55.308594 C 92.578125 57.507812 94.40625 58.949219 96.101562 60.234375 C 96.46875 60.511719 97.054688 60.292969 97.265625 59.929688 C 97.519531 59.496094 97.328125 59.050781 96.960938 58.773438 C 95.648438 57.777344 94.191406 56.664062 93.777344 54.988281 C 93.359375 53.296875 94.632812 52.128906 95.789062 51.105469 C 96.132812 50.804688 96.101562 50.21875 95.789062 49.910156 C 95.449219 49.570312 94.933594 49.605469 94.589844 49.910156 " fill-opacity="1" fill-rule="nonzero"/><path fill="#d69aa6" d="M 94.144531 48.574219 C 91.402344 49.261719 89.007812 51.011719 87.492188 53.386719 C 86.902344 54.308594 88.371094 55.160156 88.957031 54.242188 C 90.242188 52.230469 92.277344 50.789062 94.597656 50.207031 C 95.65625 49.9375 95.207031 48.304688 94.144531 48.574219 " fill-opacity="1" fill-rule="nonzero"/><path fill="#d69aa6" d="M 94.441406 46.460938 C 93.652344 47.003906 93.230469 47.921875 93.453125 48.871094 C 93.683594 49.847656 94.605469 50.472656 95.570312 50.527344 C 95.296875 50.167969 95.027344 49.8125 94.753906 49.453125 C 94.445312 50.746094 95.011719 52.191406 96.214844 52.820312 C 97.398438 53.4375 98.960938 53.152344 99.832031 52.140625 C 100.132812 51.792969 100.175781 51.285156 99.832031 50.945312 C 99.527344 50.640625 98.933594 50.59375 98.632812 50.945312 C 98.234375 51.402344 97.613281 51.601562 97.074219 51.359375 C 96.515625 51.105469 96.265625 50.425781 96.390625 49.902344 C 96.523438 49.347656 96.132812 48.863281 95.570312 48.832031 C 95.070312 48.804688 94.921875 48.179688 95.296875 47.921875 C 95.675781 47.664062 95.847656 47.179688 95.601562 46.765625 C 95.382812 46.390625 94.820312 46.199219 94.441406 46.460938 " fill-opacity="1" fill-rule="nonzero"/><path fill="#d69aa6" d="M 98.824219 51.941406 C 100.625 53.453125 103.691406 52.683594 104.132812 50.230469 C 104.328125 49.136719 104.007812 47.929688 103.160156 47.171875 C 102.210938 46.328125 100.734375 46.164062 99.765625 47.0625 C 100.210938 47.40625 100.65625 47.746094 101.101562 48.089844 C 102.386719 46.132812 100.996094 43.5 98.769531 43.144531 C 96.441406 42.773438 94.402344 44.515625 94.042969 46.773438 C 93.972656 47.226562 94.160156 47.683594 94.636719 47.816406 C 95.042969 47.925781 95.609375 47.679688 95.683594 47.226562 C 95.890625 45.902344 96.847656 44.664062 98.308594 44.78125 C 99.542969 44.882812 100.308594 46.207031 99.632812 47.234375 C 99.089844 48.0625 100.28125 48.898438 100.96875 48.261719 C 101.273438 47.972656 101.863281 48.222656 102.144531 48.554688 C 102.46875 48.941406 102.574219 49.523438 102.453125 49.988281 C 102.183594 51.003906 100.820312 51.410156 100.023438 50.746094 C 99.671875 50.453125 99.167969 50.402344 98.824219 50.746094 C 98.519531 51.046875 98.472656 51.648438 98.824219 51.941406 " fill-opacity="1" fill-rule="nonzero"/><path fill="#d69aa6" d="M 91.550781 51.511719 C 92.703125 49.5 93.007812 47.066406 92.421875 44.828125 C 92.132812 43.722656 91.617188 42.6875 90.921875 41.78125 C 90.167969 40.789062 89.273438 39.925781 88.460938 38.984375 C 87.691406 38.097656 86.929688 37.023438 86.785156 35.828125 C 86.730469 35.375 86.433594 34.984375 85.9375 34.984375 C 85.519531 34.984375 85.03125 35.371094 85.089844 35.828125 C 85.382812 38.261719 87.054688 39.949219 88.636719 41.683594 C 89.371094 42.492188 90.074219 43.351562 90.488281 44.371094 C 90.878906 45.328125 91.046875 46.355469 91.011719 47.386719 C 90.976562 48.539062 90.65625 49.660156 90.085938 50.660156 C 89.542969 51.605469 91.011719 52.460938 91.550781 51.511719 " fill-opacity="1" fill-rule="nonzero"/><path fill="#d69aa6" d="M 81.082031 36.160156 C 80.089844 37.988281 80.835938 40.042969 81.972656 41.609375 C 82.949219 42.960938 84.691406 44.585938 84.320312 46.433594 C 84.230469 46.882812 84.449219 47.347656 84.914062 47.476562 C 85.332031 47.589844 85.867188 47.335938 85.957031 46.882812 C 86.378906 44.78125 85.207031 43.042969 83.972656 41.460938 C 83.066406 40.296875 81.710938 38.558594 82.550781 37.011719 C 83.070312 36.054688 81.605469 35.199219 81.082031 36.160156 " fill-opacity="1" fill-rule="nonzero"/><path fill="#d69aa6" d="M 70.632812 42.363281 C 69.507812 42.617188 68.589844 43.527344 68.277344 44.628906 C 67.96875 45.714844 68.332031 46.90625 69.160156 47.671875 C 69.984375 48.429688 71.171875 48.765625 72.253906 48.386719 C 73.328125 48.007812 74.21875 47.058594 74.390625 45.917969 C 74.042969 46.113281 73.695312 46.3125 73.347656 46.507812 C 75 47.164062 76.984375 46.511719 78.003906 45.085938 C 79.070312 43.601562 78.820312 41.480469 77.625 40.15625 C 77.625 40.554688 77.625 40.953125 77.625 41.351562 C 78.566406 40.222656 79.09375 38.855469 79.085938 37.378906 C 78.804688 37.664062 78.519531 37.945312 78.238281 38.226562 C 79.882812 38.414062 81.382812 37.347656 81.980469 35.863281 C 81.460938 35.929688 80.945312 35.996094 80.425781 36.0625 C 80.921875 37.089844 82.1875 37.667969 83.289062 37.359375 C 84.386719 37.054688 85.179688 35.929688 85.082031 34.796875 C 84.597656 34.996094 84.113281 35.195312 83.628906 35.394531 C 84.636719 36.417969 86.390625 36.621094 87.558594 35.742188 C 87.171875 35.640625 86.785156 35.539062 86.394531 35.4375 C 87.632812 37.796875 90.605469 39.019531 93.148438 38.230469 C 92.800781 37.882812 92.453125 37.535156 92.105469 37.1875 C 91.667969 39.28125 92.941406 41.574219 95.0625 42.132812 C 97.148438 42.683594 99.347656 41.417969 100.074219 39.4375 C 99.800781 39.644531 99.527344 39.851562 99.253906 40.058594 C 101.269531 40.28125 103.34375 39.234375 104.394531 37.519531 C 105.472656 35.761719 105.382812 33.375 104.199219 31.691406 C 104.226562 31.910156 104.257812 32.125 104.285156 32.34375 C 104.96875 30.671875 105.667969 28.730469 104.921875 26.957031 C 104.289062 25.453125 102.785156 24.351562 101.109375 24.710938 C 101.46875 24.984375 101.824219 25.253906 102.183594 25.527344 C 102.121094 23.808594 101.21875 22.1875 99.742188 21.277344 C 98.167969 20.304688 96.109375 20.328125 94.507812 21.226562 C 94.851562 21.269531 95.195312 21.316406 95.539062 21.359375 C 93.371094 19.292969 89.84375 18.910156 87.304688 20.539062 C 87.730469 20.78125 88.15625 21.023438 88.582031 21.269531 C 88.625 20.105469 88.007812 19.023438 87.101562 18.324219 C 86.089844 17.539062 84.828125 17.261719 83.578125 17.140625 C 81.414062 16.933594 78.777344 17.441406 77.773438 19.609375 C 77.265625 20.699219 77.183594 22.011719 77.90625 23.03125 C 78.226562 22.617188 78.542969 22.203125 78.863281 21.789062 C 77.464844 21.507812 75.953125 21.933594 75.015625 23.039062 C 74.097656 24.121094 73.808594 25.699219 74.355469 27.019531 C 74.628906 26.660156 74.902344 26.304688 75.175781 25.945312 C 73.074219 25.707031 70.808594 26.210938 69.207031 27.644531 C 67.765625 28.933594 67.179688 31.007812 67.714844 32.863281 C 68.015625 33.902344 68.679688 34.8125 69.628906 35.355469 C 69.695312 34.839844 69.765625 34.324219 69.832031 33.808594 C 68.277344 34.019531 67.082031 35.414062 66.957031 36.941406 C 66.828125 38.523438 68.03125 40.039062 69.546875 40.421875 C 69.375 40.007812 69.207031 39.59375 69.039062 39.179688 C 68.441406 39.960938 68.449219 41.148438 68.730469 42.046875 C 69.046875 43.066406 69.75 43.902344 70.863281 44.015625 C 71.316406 44.0625 71.710938 43.59375 71.710938 43.167969 C 71.710938 42.671875 71.320312 42.371094 70.863281 42.324219 C 71.050781 42.34375 70.832031 42.3125 70.800781 42.292969 C 70.90625 42.359375 70.820312 42.308594 70.773438 42.265625 C 70.707031 42.203125 70.855469 42.335938 70.738281 42.234375 C 70.730469 42.226562 70.566406 42.046875 70.660156 42.164062 C 70.566406 42.046875 70.488281 41.90625 70.425781 41.765625 C 70.394531 41.695312 70.4375 41.808594 70.394531 41.683594 C 70.367188 41.597656 70.339844 41.511719 70.316406 41.421875 C 70.25 41.152344 70.222656 40.9375 70.261719 40.578125 C 70.25 40.699219 70.269531 40.554688 70.28125 40.507812 C 70.296875 40.441406 70.3125 40.375 70.335938 40.3125 C 70.40625 40.097656 70.261719 40.410156 70.375 40.222656 C 70.417969 40.15625 70.457031 40.097656 70.503906 40.035156 C 70.839844 39.59375 70.480469 38.914062 69.996094 38.792969 C 69.1875 38.585938 68.546875 37.796875 68.65625 36.941406 C 68.757812 36.128906 69.480469 35.546875 70.28125 35.4375 C 71.035156 35.335938 71.066406 34.222656 70.484375 33.890625 C 69.773438 33.488281 69.394531 32.824219 69.253906 31.980469 C 69.128906 31.226562 69.289062 30.335938 69.71875 29.636719 C 70.820312 27.847656 73.242188 27.417969 75.175781 27.640625 C 75.683594 27.699219 76.191406 27.046875 75.992188 26.570312 C 75.675781 25.804688 75.695312 24.917969 76.214844 24.238281 C 76.710938 23.585938 77.613281 23.261719 78.414062 23.421875 C 79.070312 23.554688 79.832031 22.832031 79.371094 22.179688 C 78.902344 21.515625 79.011719 20.730469 79.476562 20.035156 C 80.003906 19.25 81.011719 18.902344 81.921875 18.816406 C 83.566406 18.667969 86.964844 18.953125 86.886719 21.269531 C 86.863281 21.894531 87.628906 22.339844 88.164062 22 C 90.058594 20.785156 92.699219 20.992188 94.335938 22.554688 C 94.613281 22.820312 95.03125 22.875 95.367188 22.6875 C 96.453125 22.078125 97.820312 22.082031 98.886719 22.738281 C 99.839844 23.332031 100.445312 24.414062 100.484375 25.527344 C 100.507812 26.097656 101.007812 26.460938 101.558594 26.34375 C 102.351562 26.171875 103.117188 26.9375 103.386719 27.667969 C 103.832031 28.859375 103.308594 30.226562 102.871094 31.335938 C 102.726562 31.703125 102.527344 32.050781 102.691406 32.445312 C 102.804688 32.71875 103.007812 32.949219 103.132812 33.222656 C 103.335938 33.675781 103.441406 34.175781 103.453125 34.667969 C 103.472656 35.6875 103.101562 36.65625 102.355469 37.363281 C 101.523438 38.152344 100.386719 38.492188 99.253906 38.367188 C 98.867188 38.324219 98.554688 38.664062 98.4375 38.988281 C 98.023438 40.121094 96.621094 40.792969 95.511719 40.503906 C 94.304688 40.183594 93.5 38.8125 93.742188 37.640625 C 93.867188 37.035156 93.351562 36.394531 92.699219 36.597656 C 90.867188 37.164062 88.769531 36.316406 87.863281 34.582031 C 87.667969 34.210938 87.054688 34.011719 86.699219 34.277344 C 86.121094 34.714844 85.359375 34.734375 84.832031 34.199219 C 84.347656 33.707031 83.316406 34.046875 83.382812 34.796875 C 83.464844 35.746094 82.328125 36.113281 81.894531 35.210938 C 81.75 34.914062 81.355469 34.761719 81.046875 34.804688 C 80.6875 34.859375 80.472656 35.085938 80.339844 35.414062 C 80.011719 36.242188 79.074219 36.628906 78.238281 36.535156 C 77.78125 36.480469 77.386719 36.964844 77.386719 37.378906 C 77.390625 38.382812 77.070312 39.378906 76.421875 40.15625 C 76.117188 40.523438 76.09375 40.984375 76.421875 41.351562 C 77.105469 42.109375 77.1875 43.371094 76.570312 44.191406 C 75.917969 45.058594 74.742188 45.25 73.796875 44.875 C 73.40625 44.71875 72.816406 45.050781 72.753906 45.464844 C 72.582031 46.617188 71.289062 47.308594 70.359375 46.472656 C 69.453125 45.65625 69.917969 44.257812 71.085938 43.996094 C 72.152344 43.757812 71.699219 42.125 70.632812 42.363281 " fill-opacity="1" fill-rule="nonzero"/><path fill="#d69aa6" d="M 97.773438 58.523438 C 96.511719 58.964844 95.191406 58.75 93.90625 58.542969 C 92.484375 58.316406 91.019531 58.089844 89.601562 58.472656 C 86.96875 59.1875 85.414062 61.65625 84.15625 63.878906 C 83.617188 64.828125 85.085938 65.683594 85.621094 64.734375 C 86.710938 62.816406 88.050781 60.449219 90.429688 60.019531 C 91.644531 59.804688 92.90625 60.097656 94.105469 60.277344 C 95.476562 60.484375 96.882812 60.625 98.222656 60.15625 C 98.65625 60.007812 98.945312 59.578125 98.816406 59.117188 C 98.703125 58.699219 98.207031 58.375 97.773438 58.523438 " fill-opacity="1" fill-rule="nonzero"/><path fill="#d69aa6" d="M 71.90625 60.109375 C 71.101562 60.046875 70.253906 60 69.484375 60.292969 C 68.714844 60.585938 68.0625 61.167969 67.800781 61.964844 C 67.300781 63.464844 68.5625 64.585938 69.898438 64.917969 C 70.636719 65.097656 71.40625 65.113281 72.164062 65.148438 C 73.066406 65.195312 73.972656 65.234375 74.878906 65.261719 C 76.691406 65.324219 78.503906 65.351562 80.320312 65.347656 C 83.972656 65.34375 87.625 65.210938 91.269531 64.949219 C 93.105469 64.816406 94.9375 64.652344 96.765625 64.457031 C 98.269531 64.296875 99.863281 64.246094 101.265625 63.625 C 102.71875 62.980469 103.582031 61.390625 102.734375 59.898438 C 102.308594 59.140625 101.519531 58.585938 100.683594 58.367188 C 99.824219 58.144531 99.027344 58.398438 98.175781 58.511719 C 97.722656 58.574219 97.472656 59.15625 97.582031 59.554688 C 97.71875 60.042969 98.171875 60.207031 98.628906 60.144531 C 99.152344 60.074219 99.648438 59.875 100.164062 59.984375 C 100.625 60.078125 101.09375 60.371094 101.296875 60.804688 C 101.457031 61.148438 101.347656 61.46875 101.203125 61.636719 C 100.941406 61.945312 100.527344 62.132812 100.113281 62.261719 C 98.890625 62.648438 97.59375 62.679688 96.289062 62.816406 C 94.722656 62.980469 93.15625 63.117188 91.585938 63.234375 C 85.339844 63.691406 79.0625 63.777344 72.800781 63.488281 C 72.121094 63.457031 71.324219 63.457031 70.710938 63.359375 C 70.449219 63.316406 70.132812 63.242188 69.914062 63.152344 C 69.746094 63.082031 69.558594 62.957031 69.492188 62.875 C 69.40625 62.769531 69.355469 62.671875 69.417969 62.464844 C 69.476562 62.269531 69.652344 62.109375 69.824219 61.996094 C 70.402344 61.617188 71.253906 61.75 71.90625 61.800781 C 72.363281 61.839844 72.753906 61.386719 72.753906 60.957031 C 72.753906 60.46875 72.363281 60.144531 71.90625 60.109375 " fill-opacity="1" fill-rule="nonzero"/><g clip-path="url(#7c1697d97d)"><path fill="#d69aa6" d="M 69.890625 60.027344 C 66.636719 59.785156 63.480469 61.421875 61.734375 64.152344 C 61.542969 64.449219 61.59375 64.941406 61.867188 65.179688 C 67.804688 70.351562 75.289062 73.542969 83.15625 74.195312 C 90.125 74.769531 97.128906 73.046875 103.214844 69.660156 C 106.101562 68.054688 108.828125 66.109375 111.265625 63.890625 C 111.621094 63.566406 111.554688 63.027344 111.265625 62.691406 C 108.675781 59.707031 104.777344 58.085938 100.832031 58.273438 C 99.742188 58.324219 99.738281 60.015625 100.832031 59.964844 C 104.367188 59.796875 107.746094 61.214844 110.066406 63.890625 C 110.066406 63.492188 110.066406 63.089844 110.066406 62.691406 C 105.644531 66.714844 100.25 69.855469 94.480469 71.441406 C 87.207031 73.4375 79.40625 72.804688 72.472656 69.867188 C 69.027344 68.40625 65.816406 66.378906 63.070312 63.980469 C 63.113281 64.324219 63.15625 64.664062 63.199219 65.007812 C 63.863281 63.972656 64.875 63.03125 66.082031 62.425781 C 67.265625 61.835938 68.585938 61.621094 69.890625 61.71875 C 70.347656 61.753906 70.742188 61.304688 70.742188 60.871094 C 70.742188 60.386719 70.351562 60.058594 69.890625 60.027344 " fill-opacity="1" fill-rule="nonzero"/></g><g clip-path="url(#e5a89acc7d)"><path fill="#d69aa6" d="M 85.335938 0.125 C 81.453125 0.128906 77.558594 0.726562 73.863281 1.925781 C 70.296875 3.082031 66.902344 4.777344 63.847656 6.949219 C 60.800781 9.113281 58.101562 11.710938 55.824219 14.671875 C 53.539062 17.632812 51.730469 20.9375 50.433594 24.441406 C 49.101562 28.058594 48.363281 31.886719 48.214844 35.734375 C 48.0625 39.625 48.527344 43.550781 49.597656 47.292969 C 50.621094 50.878906 52.195312 54.320312 54.25 57.4375 C 56.292969 60.527344 58.789062 63.324219 61.65625 65.679688 C 64.578125 68.082031 67.828125 70.019531 71.328125 71.453125 C 74.886719 72.910156 78.671875 73.78125 82.503906 74.074219 C 86.398438 74.375 90.34375 74.054688 94.136719 73.136719 C 97.800781 72.253906 101.339844 70.792969 104.5625 68.847656 C 107.734375 66.925781 110.632812 64.527344 113.097656 61.761719 C 115.574219 58.980469 117.640625 55.839844 119.175781 52.449219 C 120.761719 48.945312 121.789062 45.238281 122.238281 41.421875 C 122.699219 37.523438 122.515625 33.558594 121.738281 29.714844 C 120.988281 26.019531 119.644531 22.433594 117.804688 19.140625 C 115.996094 15.90625 113.6875 12.933594 111 10.378906 C 108.308594 7.816406 105.226562 5.648438 101.894531 3.996094 C 98.503906 2.316406 94.859375 1.144531 91.113281 0.574219 C 89.199219 0.28125 87.273438 0.125 85.335938 0.125 C 84.246094 0.121094 84.242188 1.816406 85.335938 1.816406 C 89.070312 1.820312 92.75 2.390625 96.308594 3.539062 C 99.722656 4.640625 102.949219 6.273438 105.882812 8.347656 C 108.730469 10.359375 111.324219 12.851562 113.449219 15.609375 C 115.628906 18.4375 117.394531 21.609375 118.621094 24.945312 C 119.894531 28.414062 120.621094 32.054688 120.761719 35.734375 C 120.90625 39.476562 120.476562 43.191406 119.457031 46.792969 C 118.46875 50.269531 116.953125 53.558594 114.957031 56.582031 C 113.007812 59.535156 110.601562 62.1875 107.859375 64.449219 C 105.15625 66.679688 102.042969 68.542969 98.792969 69.863281 C 95.390625 71.242188 91.765625 72.109375 88.113281 72.386719 C 84.355469 72.667969 80.585938 72.378906 76.933594 71.492188 C 73.414062 70.636719 70.070312 69.257812 66.96875 67.382812 C 63.925781 65.542969 61.1875 63.261719 58.8125 60.605469 C 56.445312 57.953125 54.488281 54.933594 53.011719 51.691406 C 51.523438 48.4375 50.527344 44.863281 50.121094 41.308594 C 49.691406 37.578125 49.835938 33.78125 50.585938 30.113281 C 51.3125 26.5625 52.570312 23.15625 54.335938 19.996094 C 56.074219 16.886719 58.257812 14.074219 60.835938 11.613281 C 63.414062 9.152344 66.34375 7.101562 69.539062 5.507812 C 72.804688 3.878906 76.339844 2.773438 79.960938 2.214844 C 81.722656 1.941406 83.539062 1.820312 85.335938 1.816406 C 86.429688 1.816406 86.433594 0.121094 85.335938 0.125 " fill-opacity="1" fill-rule="nonzero"/></g><path fill="#d69aa6" d="M 116.921875 20.234375 C 112.828125 23.273438 109.777344 27.582031 108.292969 32.457031 C 107.460938 35.195312 107.234375 38.042969 107.273438 40.894531 C 107.316406 43.902344 107.601562 46.910156 107.394531 49.917969 C 107.199219 52.8125 106.519531 55.710938 104.8125 58.109375 C 104.546875 58.480469 104.742188 59.050781 105.113281 59.269531 C 105.542969 59.515625 106.011719 59.335938 106.277344 58.964844 C 109.582031 54.324219 109.234375 48.355469 109.03125 42.960938 C 108.921875 40.082031 108.890625 37.183594 109.542969 34.359375 C 110.09375 31.980469 111.042969 29.714844 112.332031 27.640625 C 113.761719 25.351562 115.609375 23.304688 117.78125 21.695312 C 118.148438 21.421875 118.335938 20.964844 118.085938 20.539062 C 117.875 20.175781 117.292969 19.960938 116.921875 20.234375 " fill-opacity="1" fill-rule="nonzero"/><path fill="#d69aa6" d="M 119.316406 26.890625 C 115.59375 29.320312 113.625 33.609375 112.960938 37.875 C 112.144531 43.144531 112.960938 48.46875 112.476562 53.757812 C 112.234375 56.40625 111.617188 59.058594 110.292969 61.394531 C 109.757812 62.34375 111.222656 63.195312 111.761719 62.246094 C 114.210938 57.921875 114.398438 52.84375 114.320312 47.996094 C 114.242188 43.195312 113.921875 38.105469 115.933594 33.605469 C 116.863281 31.519531 118.238281 29.617188 120.171875 28.355469 C 121.082031 27.757812 120.234375 26.292969 119.316406 26.890625 " fill-opacity="1" fill-rule="nonzero"/><path fill="#d69aa6" d="M 113.09375 14.59375 C 108.550781 17.460938 105.109375 21.882812 103.453125 26.980469 C 103.113281 28.019531 104.753906 28.464844 105.089844 27.429688 C 106.609375 22.761719 109.789062 18.683594 113.949219 16.058594 C 114.871094 15.476562 114.019531 14.011719 113.09375 14.59375 " fill-opacity="1" fill-rule="nonzero"/><path fill="#d69aa6" d="M 101.757812 38.722656 C 101.398438 41.203125 101.265625 43.699219 101.40625 46.203125 C 101.464844 47.285156 103.164062 47.292969 103.105469 46.203125 C 102.972656 43.859375 103.058594 41.5 103.398438 39.171875 C 103.460938 38.722656 103.285156 38.265625 102.804688 38.132812 C 102.40625 38.023438 101.824219 38.269531 101.757812 38.722656 " fill-opacity="1" fill-rule="nonzero"/><path fill="#d69aa6" d="M 98.339844 58.75 C 99.738281 56.683594 100.558594 54.3125 100.816406 51.84375 C 100.863281 51.386719 100.390625 50.996094 99.96875 50.996094 C 99.46875 50.996094 99.164062 51.386719 99.117188 51.84375 C 98.894531 54.015625 98.097656 56.089844 96.875 57.894531 C 96.617188 58.273438 96.800781 58.832031 97.179688 59.054688 C 97.597656 59.296875 98.082031 59.128906 98.339844 58.75 " fill-opacity="1" fill-rule="nonzero"/><path fill="#d69aa6" d="M 52.761719 20.523438 C 53.019531 23.296875 54.40625 25.742188 56.296875 27.742188 C 58.304688 29.867188 60.828125 31.402344 63.316406 32.898438 C 64.789062 33.785156 66.265625 34.675781 67.652344 35.695312 C 68.023438 35.96875 68.601562 35.757812 68.816406 35.390625 C 69.066406 34.960938 68.882812 34.507812 68.511719 34.234375 C 64.207031 31.074219 58.648438 29.066406 55.777344 24.308594 C 55.082031 23.15625 54.585938 21.871094 54.460938 20.523438 C 54.417969 20.070312 54.101562 19.679688 53.613281 19.679688 C 53.1875 19.679688 52.722656 20.066406 52.761719 20.523438 " fill-opacity="1" fill-rule="nonzero"/><path fill="#d69aa6" d="M 83.242188 50.796875 C 82.5 48.128906 80.945312 45.703125 78.804688 43.933594 C 78.449219 43.644531 77.949219 43.589844 77.601562 43.933594 C 77.300781 44.234375 77.246094 44.839844 77.601562 45.132812 C 79.535156 46.722656 80.933594 48.839844 81.605469 51.246094 C 81.894531 52.296875 83.535156 51.851562 83.242188 50.796875 " fill-opacity="1" fill-rule="nonzero"/><path fill="#d69aa6" d="M 49.222656 29.035156 C 52.679688 34.472656 57.789062 38.847656 63.710938 41.421875 C 65.40625 42.15625 67.148438 42.757812 68.941406 43.199219 C 70 43.457031 70.453125 41.824219 69.390625 41.566406 C 63.40625 40.097656 57.945312 36.816406 53.804688 32.265625 C 52.648438 30.996094 51.613281 29.628906 50.691406 28.179688 C 50.109375 27.261719 48.636719 28.109375 49.222656 29.035156 " fill-opacity="1" fill-rule="nonzero"/><path fill="#d69aa6" d="M 78.605469 54.699219 C 77.675781 51.644531 76.144531 48.832031 74.113281 46.371094 C 73.824219 46.019531 73.214844 46.070312 72.914062 46.371094 C 72.5625 46.71875 72.621094 47.214844 72.914062 47.566406 C 74.753906 49.796875 76.125 52.390625 76.964844 55.148438 C 77.28125 56.1875 78.921875 55.742188 78.605469 54.699219 " fill-opacity="1" fill-rule="nonzero"/><g clip-path="url(#d5a8ddb2fc)"><path fill="#d69aa6" d="M 72.402344 59.8125 C 72.367188 55.539062 69.386719 52.023438 65.984375 49.757812 C 62.320312 47.320312 58.03125 46.011719 54.410156 43.507812 C 52.613281 42.265625 51.027344 40.714844 50.019531 38.761719 C 49.523438 37.792969 48.054688 38.644531 48.554688 39.613281 C 50.4375 43.273438 54.078125 45.550781 57.660156 47.320312 C 61.441406 49.1875 65.582031 50.777344 68.375 54.074219 C 69.738281 55.683594 70.6875 57.683594 70.703125 59.8125 C 70.710938 60.902344 72.410156 60.902344 72.402344 59.8125 " fill-opacity="1" fill-rule="nonzero"/></g><path fill="#d69aa6" d="M 66.34375 60.726562 C 64.054688 57.003906 60.648438 53.96875 56.664062 52.148438 C 55.515625 51.625 54.332031 51.1875 53.109375 50.863281 C 52.054688 50.578125 51.601562 52.210938 52.660156 52.496094 C 57.707031 53.84375 62.144531 57.136719 64.875 61.582031 C 65.445312 62.507812 66.914062 61.660156 66.34375 60.726562 " fill-opacity="1" fill-rule="nonzero"/><path fill="#d69aa6" d="M 106.710938 8.683594 C 102.507812 11.425781 99.304688 15.492188 97.617188 20.207031 C 97.460938 20.636719 97.789062 21.132812 98.207031 21.246094 C 98.679688 21.375 99.097656 21.089844 99.253906 20.65625 C 100.789062 16.375 103.753906 12.632812 107.570312 10.144531 C 108.480469 9.550781 107.628906 8.082031 106.710938 8.683594 " fill-opacity="1" fill-rule="nonzero"/><path fill="#d69aa6" d="M 57.578125 13.875 C 59.175781 19.082031 62.878906 23.574219 67.652344 26.214844 C 69.007812 26.96875 70.453125 27.570312 71.945312 28 C 72.996094 28.304688 73.445312 26.671875 72.398438 26.367188 C 67.5625 24.96875 63.394531 21.617188 60.890625 17.273438 C 60.1875 16.054688 59.628906 14.769531 59.214844 13.421875 C 58.894531 12.382812 57.257812 12.828125 57.578125 13.875 " fill-opacity="1" fill-rule="nonzero"/><path fill="#d69aa6" d="M 63.566406 8.550781 C 65.019531 13.988281 68.84375 18.714844 73.796875 21.394531 C 75.203125 22.15625 76.703125 22.753906 78.253906 23.160156 C 79.3125 23.4375 79.761719 21.808594 78.707031 21.527344 C 73.652344 20.199219 69.3125 16.699219 66.816406 12.136719 C 66.117188 10.859375 65.582031 9.507812 65.207031 8.101562 C 64.925781 7.050781 63.285156 7.496094 63.566406 8.550781 " fill-opacity="1" fill-rule="nonzero"/><path fill="#d69aa6" d="M 97.667969 3.90625 C 94.503906 7.125 92.558594 11.375 92.070312 15.84375 C 91.933594 17.097656 91.929688 18.363281 92.046875 19.617188 C 92.089844 20.074219 92.40625 20.464844 92.898438 20.464844 C 93.324219 20.464844 93.789062 20.074219 93.746094 19.617188 C 93.246094 14.3125 95.121094 8.917969 98.867188 5.105469 C 99.632812 4.324219 98.433594 3.125 97.667969 3.90625 " fill-opacity="1" fill-rule="nonzero"/><path fill="#d69aa6" d="M 87.910156 1.425781 C 85.109375 5.058594 83.867188 9.863281 84.453125 14.402344 C 84.625 15.714844 84.917969 16.992188 85.382812 18.234375 C 85.542969 18.660156 85.957031 18.953125 86.425781 18.824219 C 86.839844 18.710938 87.179688 18.214844 87.019531 17.78125 C 85.542969 13.828125 85.691406 9.304688 87.453125 5.460938 C 87.972656 4.332031 88.617188 3.265625 89.378906 2.28125 C 89.65625 1.917969 89.433594 1.332031 89.074219 1.121094 C 88.636719 0.867188 88.191406 1.0625 87.910156 1.425781 " fill-opacity="1" fill-rule="nonzero"/><path fill="#d69aa6" d="M 74.039062 3.320312 C 73.777344 7.808594 75.191406 12.398438 77.90625 15.988281 C 78.691406 17.027344 79.5625 17.988281 80.542969 18.851562 C 80.886719 19.152344 81.40625 19.1875 81.742188 18.851562 C 82.050781 18.542969 82.089844 17.957031 81.742188 17.652344 C 78.566406 14.863281 76.5 10.992188 75.875 6.824219 C 75.699219 5.667969 75.667969 4.488281 75.734375 3.320312 C 75.796875 2.230469 74.101562 2.234375 74.039062 3.320312 " fill-opacity="1" fill-rule="nonzero"/><path fill="#d69aa6" d="M 97.066406 44.488281 C 97.367188 43.492188 97.203125 42.375 96.59375 41.527344 C 96.324219 41.160156 95.851562 40.980469 95.429688 41.226562 C 95.0625 41.4375 94.855469 42.011719 95.125 42.382812 C 95.492188 42.890625 95.609375 43.433594 95.429688 44.035156 C 95.117188 45.082031 96.753906 45.53125 97.066406 44.488281 " fill-opacity="1" fill-rule="nonzero"/></svg>